<svg weight="bold" viewBox="0 0 200 200" fill="none" xmlns="http://www.w3.org/2000/svg">
<path class="su-number" d="M134.815 128.985H95.7692C100.338 125.523 107.815 120.123 112.108 116.246C122.492 107.246 133.569 97.2769 133.569 80.8C133.569 60.5846 117.785 52 100.062 52C84.5539 52 71.2615 60.5846 66 78.3077L83.7231 83.9846C86.3538 73.6 92.1692 69.1692 99.6462 69.1692C108.092 69.1692 111.969 74.5692 111.969 81.7692C111.969 90.4923 107.262 98.9385 97.5692 107.246C93 111.262 88.4308 115.554 83.7231 119.431C78.8769 123.308 71.8154 128.708 66 134.523V146.292H134.815V128.985Z" fill="black" />
</svg>