<svg weight="bold" viewBox="0 0 200 200" fill="none" xmlns="http://www.w3.org/2000/svg">
<path class="su-number" d="M136.554 120.262C136.554 110.569 132.4 100.877 116.892 96.5846C129.631 93.1231 134.2 83.5692 134.2 75.6769C134.2 60.4462 119.523 52 101.8 52C85.8771 52 73.4155 60.5846 67.7386 73.4615L83.6617 80.5231C87.8155 71.2462 93.7694 67.7846 100.831 67.7846C109.139 67.7846 113.431 73.4615 113.431 78.5846C113.431 83.9846 110.523 91.1846 98.6155 91.1846H88.3694V106.415H99.5848C111.631 106.415 115.231 113.2 115.231 119.154C115.231 126.077 109.969 132.308 100 132.308C91.554 132.308 84.9078 128.569 80.2001 119.015L64.0001 126.354C71.754 142.138 83.9386 148.092 100 148.092C119.385 148.092 136.554 137.846 136.554 120.262Z" fill="black" />
</svg>