<svg weight="bold" viewBox="0 0 200 200" fill="none" xmlns="http://www.w3.org/2000/svg">
<path class="su-number" d="M134.2 115.781C134.2 97.7808 121.185 86.5654 103.046 86.5654C96.6769 86.5654 90.0308 88.6424 85.8769 90.7193L88.2308 71.3347H126.862L128.662 53.75H73L68.0154 99.8577L81.3077 108.719C86.5692 104.289 91.6923 102.627 97.6462 102.627C107.338 102.627 112.877 108.581 112.877 116.75C112.877 126.027 107.754 132.812 98.0615 132.812C89.4769 132.812 83.9385 128.104 80.0615 119.796L64 127.273C69.9538 139.458 80.4769 148.596 98.3385 148.596C119.246 148.596 134.2 134.612 134.2 115.781Z" fill="black" />
</svg>