<svg weight="bold" viewBox="0 0 200 200" fill="none" xmlns="http://www.w3.org/2000/svg">
<path class="su-number" d="M134.2 115.5C134.2 95.977 120.354 86.8385 105.539 86.8385C96.5386 86.8385 90.7232 90.7154 85.0463 93.9001C86.5694 73.2693 94.1847 68.1462 103.323 68.1462C109.692 68.1462 114.539 71.7462 117.169 78.2539L133.369 70.777C128.523 59.0077 118.969 52.5 104.708 52.5C76.6001 52.5 64.0001 76.177 64.0001 104.423C64.0001 131.7 79.6463 148.592 100.277 148.592C118.692 148.592 134.2 135.023 134.2 115.5ZM113.154 117.162C113.154 127.131 109.139 134.331 99.7232 134.331C90.3078 134.331 85.0463 125.331 85.0463 108.023C88.0924 105.808 93.9078 102.346 100 102.346C107.2 102.346 113.154 106.777 113.154 117.162Z" fill="black" />
</svg>