<svg weight="bold" viewBox="0 0 200 200" fill="none" xmlns="http://www.w3.org/2000/svg">
<path class="su-number" d="M134.892 121.677C134.892 110.6 128.8 102.569 117.169 97.5847C125.615 93.5693 131.569 86.0924 131.569 77.3693C131.569 63.1078 119.8 53.0001 99.5846 53.0001C79.6462 53.0001 66.9077 64.7693 66.9077 80.0001C66.9077 89.277 72.0308 96.7539 80.8923 101.323C70.0923 105.754 64 114.754 64 123.615C64 138.985 76.7385 149.369 99.1692 149.369C121.185 149.369 134.892 137.462 134.892 121.677ZM113.154 78.8924C113.154 84.9847 111.077 89.5539 104.292 92.4616C91.8308 88.1693 86.7077 84.2924 86.7077 77.6462C86.7077 71.6924 91.5539 67.2616 99.5846 67.2616C107.754 67.2616 113.154 72.6616 113.154 78.8924ZM114.4 123.892C114.4 130.677 108.862 135.385 99.1692 135.385C88.6462 135.385 82.9692 130.123 82.9692 122.092C82.9692 115.723 86.4308 110.877 93.7692 107.831C108.585 112.262 114.4 116.692 114.4 123.892Z" fill="black" />
</svg>