<svg weight="bold" viewBox="0 0 200 200" fill="none" xmlns="http://www.w3.org/2000/svg">
<path class="su-number" d="M134.455 97.1693C134.455 69.8924 119.502 53.0001 98.4554 53.0001C80.04 53.0001 64.2554 66.5693 64.2554 86.0924C64.2554 105.615 78.1015 114.754 92.9169 114.754C101.917 114.754 107.732 110.877 113.409 107.692C111.886 128.323 103.994 133.446 94.8554 133.446C88.4861 133.446 83.2246 128.877 81.0092 123.339L64.8092 130.815C69.6554 142.723 79.6246 149.092 93.8861 149.092C120.609 149.092 134.455 125.415 134.455 97.1693ZM113.409 93.5693C110.363 95.7847 104.548 99.2463 98.4554 99.2463C91.2554 99.2463 85.3015 94.8155 85.3015 84.4309C85.3015 74.4616 89.3169 67.2616 98.7323 67.2616C108.148 67.2616 113.409 76.2616 113.409 93.5693Z" fill="black" />
</svg>