<svg width="55" height="55" viewBox="0 0 55 55" fill="none" xmlns="http://www.w3.org/2000/svg">
<g clip-path="url(#clip0)">
<rect width="55" height="55" fill="white"/>
<circle cx="27.5" cy="27.5" r="27.5" fill="#FB9B00"/>
<path d="M42.9268 24.1243C42.8674 23.9392 42.7028 23.8039 42.5058 23.7764L32.4665 22.3801L27.9789 13.6724C27.8018 13.3287 27.2244 13.3287 27.0472 13.6724L22.5596 22.3801L12.5204 23.7764C12.3224 23.8039 12.1587 23.9392 12.0983 24.1243C12.0378 24.3094 12.0879 24.5128 12.2338 24.647L19.4873 31.4244L17.7677 40.9894C17.726 41.1796 17.8094 41.3718 17.9657 41.4877C18.0491 41.5508 18.1637 41.5853 18.268 41.5853C18.3513 41.5853 18.4243 41.565 18.5077 41.5243L27.4912 36.9986L36.4643 41.5142C36.5373 41.5447 36.6206 41.565 36.704 41.565H36.7249C37.0062 41.565 37.2459 41.3311 37.2459 41.0565C37.2459 40.9751 37.2251 40.8938 37.1834 40.8328L35.4951 31.4051L42.759 24.6216C42.905 24.4894 42.9571 24.286 42.8945 24.1029L42.9268 24.1243Z" fill="white"/>
</g>
<defs>
<clipPath id="clip0">
<rect width="55" height="55" fill="white"/>
</clipPath>
</defs>
</svg>
